<svg xmlns="http://www.w3.org/2000/svg" width="270" height="270" viewBox="0 0 270 270">
  <defs>
    <linearGradient id="tile" x1="0" y1="0" x2="1" y2="1">
      <stop offset="0" stop-color="#fff7d8"/>
      <stop offset="1" stop-color="#d5ad64"/>
    </linearGradient>
    <filter id="shadow" x="-20%" y="-20%" width="140%" height="140%">
      <feDropShadow dx="0" dy="4" stdDeviation="2.5" flood-color="#2b1709" flood-opacity=".28"/>
    </filter>
  </defs>
  <rect width="270" height="270" fill="none"/>
  <g fill="url(#tile)" stroke="#5a3218" stroke-width="3">
    <rect x="5" y="5" width="80" height="80" rx="14"/>
    <rect x="95" y="5" width="80" height="80" rx="14"/>
    <rect x="185" y="5" width="80" height="80" rx="14"/>
    <rect x="5" y="95" width="80" height="80" rx="14"/>
    <rect x="95" y="95" width="80" height="80" rx="14"/>
    <rect x="185" y="95" width="80" height="80" rx="14"/>
    <rect x="5" y="185" width="80" height="80" rx="14"/>
    <rect x="95" y="185" width="80" height="80" rx="14"/>
    <rect x="185" y="185" width="80" height="80" rx="14"/>
  </g>
  <g filter="url(#shadow)" stroke-linecap="round" stroke-linejoin="round">
    <g transform="translate(0 0)" stroke="#9f2f2b" stroke-width="7" fill="none">
      <path d="M24 58 60 25"/>
      <path d="M30 25 67 58"/>
      <path d="M24 58c14 8 29 8 43 0"/>
      <circle cx="45" cy="45" r="6" fill="#f2d05d" stroke="none"/>
    </g>
    <g transform="translate(90 0)">
      <path d="M33 64V31" stroke="#8a5a32" stroke-width="7"/>
      <circle cx="45" cy="36" r="21" fill="#9de6ff" fill-opacity=".66" stroke="#3d839c" stroke-width="6"/>
      <path d="M59 50 72 64" stroke="#8a5a32" stroke-width="7"/>
      <path d="M38 25c10-7 20-4 26 5" stroke="#ffffff" stroke-width="4" fill="none"/>
    </g>
    <g transform="translate(180 0)">
      <path d="M29 59h32c5 0 9-4 9-9V36c0-5-4-9-9-9H29c-5 0-9 4-9 9v14c0 5 4 9 9 9z" fill="#e9edf2" stroke="#68717a" stroke-width="5"/>
      <path d="M45 43 24 32M45 43l23-9M45 43l-2 25" stroke="#6aa6c8" stroke-width="6"/>
      <circle cx="45" cy="43" r="7" fill="#f4c84e" stroke="#5a3218" stroke-width="3"/>
    </g>
    <g transform="translate(0 90)">
      <path d="M43 19c8 0 14 6 14 14v24c0 8-6 14-14 14s-14-6-14-14V33c0-8 6-14 14-14z" fill="#f5cda8" stroke="#9f6b4b" stroke-width="5"/>
      <path d="M57 43h10M29 43H18" stroke="#9f6b4b" stroke-width="5"/>
      <path d="M36 62c5 4 10 4 15 0" stroke="#7a3f26" stroke-width="4" fill="none"/>
    </g>
    <g transform="translate(90 90)">
      <path d="M45 20c11 0 20 9 20 20 0 19-20 34-20 34S25 59 25 40c0-11 9-20 20-20z" fill="#ff7d3a" stroke="#9b3a1c" stroke-width="5"/>
      <path d="M37 43h16M45 32v25" stroke="#ffe874" stroke-width="5"/>
    </g>
    <g transform="translate(180 90)">
      <path d="M24 61c10 8 33 8 43 0l-6-32c-2-9-30-9-32 0z" fill="#6b4b34" stroke="#332015" stroke-width="5"/>
      <path d="M25 64h42" stroke="#202020" stroke-width="8"/>
      <path d="M35 25c7 7 16 7 23 0" stroke="#d8b179" stroke-width="4" fill="none"/>
    </g>
    <g transform="translate(0 180)">
      <path d="M25 59c12 9 28 10 43 2V34c-14 10-30 8-43-2z" fill="#81d9ff" stroke="#2d7895" stroke-width="5"/>
      <path d="M27 30c13 8 27 9 40 2" stroke="#ffffff" stroke-width="4" fill="none"/>
      <path d="M67 34c8 1 11 7 6 13M68 51c9 1 11 8 4 13" stroke="#2d7895" stroke-width="4" fill="none"/>
    </g>
    <g transform="translate(90 180)">
      <circle cx="45" cy="45" r="23" fill="#ffe55c" stroke="#c78316" stroke-width="5"/>
      <path d="M45 14v10M45 66v10M14 45h10M66 45h10M23 23l8 8M59 59l8 8M67 23l-8 8M31 59l-8 8" stroke="#ffe55c" stroke-width="6"/>
      <circle cx="45" cy="45" r="8" fill="#fff7b8" stroke="none"/>
    </g>
    <g transform="translate(180 180)">
      <circle cx="45" cy="45" r="24" fill="#9ee45e" stroke="#3d7528" stroke-width="5"/>
      <path d="M45 23v44M31 31l28 28M59 31 31 59" stroke="#fff2a6" stroke-width="5"/>
      <path d="M35 69h20" stroke="#5a3218" stroke-width="5"/>
    </g>
  </g>
</svg>
